<?xml version="1.0" encoding="utf-8"?>
<!-- Generator: Adobe Illustrator 24.3.0, SVG Export Plug-In . SVG Version: 6.00 Build 0)  -->
<svg version="1.1" id="Слой_1" xmlns="http://www.w3.org/2000/svg" xmlns:xlink="http://www.w3.org/1999/xlink" x="0px" y="0px"
	 viewBox="0 0 692 172" style="enable-background:new 0 0 692 172;" xml:space="preserve">
<style type="text/css">
	.st0{fill:#FFFFFF;}
</style>
<g>
	<path class="st0" d="M149.84,156.65v-96.7h-0.64l-39.61,96.7H94.48l-39.7-96.7h-0.64v96.7H35.57V25.26h23.58l42.52,104.71h0.73
		l42.43-104.71h23.67v131.39H149.84z"/>
	<path class="st0" d="M186.53,129.42c0-16.75,12.84-27.04,35.6-28.32l26.22-1.55v-7.38c0-10.65-7.19-17.03-19.21-17.03
		c-11.38,0-18.48,5.46-20.21,14.02h-18.57c1.09-17.3,15.84-30.05,39.52-30.05c23.22,0,38.06,12.29,38.06,31.5v66.01h-18.85v-15.75
		h-0.46c-5.55,10.65-17.66,17.39-30.23,17.39C199.64,158.28,186.53,146.63,186.53,129.42z M248.35,120.77v-7.56l-23.58,1.46
		c-11.75,0.82-18.39,6.01-18.39,14.2c0,8.38,6.92,13.84,17.48,13.84C237.6,142.72,248.35,133.25,248.35,120.77z"/>
	<path class="st0" d="M350.41,93.82c-2-10.2-9.65-18.3-22.49-18.3c-15.21,0-25.22,12.66-25.22,33.23c0,21.03,10.11,33.23,25.4,33.23
		c12.11,0,20.03-6.65,22.31-17.75h18.94c-2.09,20.4-18.39,34.24-41.43,34.24c-27.41,0-45.25-18.76-45.25-49.71
		c0-30.41,17.85-49.62,45.07-49.62c24.67,0,39.7,15.84,41.43,34.69H350.41z"/>
	<path class="st0" d="M384.46,156.65V25.26h57.18c24.67,0,40.15,12.66,40.15,32.78c0,14.39-10.74,26.4-24.67,28.5v0.73
		c17.85,1.37,30.96,14.39,30.96,31.78c0,23.13-17.39,37.6-45.43,37.6H384.46z M411.96,79.89h19.76c14.66,0,23.04-6.46,23.04-17.57
		c0-10.56-7.38-16.57-20.21-16.57h-22.58V79.89z M435.63,136.16c15.84,0,24.4-6.74,24.4-19.3c0-12.29-8.83-18.85-25.04-18.85h-23.04
		v38.15H435.63z"/>
	<path class="st0" d="M501.45,59.04h25.68v17.57h0.55c3.46-12.38,11.75-19.12,23.22-19.12c3.1,0,5.74,0.46,7.56,1v23.4
		c-2.19-0.91-5.83-1.55-9.65-1.55c-13.11,0-20.76,8.01-20.76,21.76v54.54h-26.59V59.04z"/>
	<path class="st0" d="M565.73,107.75c0-31.59,19.12-50.81,48.35-50.81c29.23,0,48.35,19.12,48.35,50.81
		c0,32.14-18.85,50.99-48.35,50.99C584.58,158.74,565.73,139.8,565.73,107.75z M635.39,107.84c0-19.39-8.38-30.59-21.31-30.59
		c-12.93,0-21.4,11.2-21.4,30.59c0,19.58,8.29,30.59,21.4,30.59C627.1,138.44,635.39,127.42,635.39,107.84z"/>
</g>
</svg>
