<svg width="16" height="16" viewBox="0 0 16 16" fill="none" xmlns="http://www.w3.org/2000/svg">
<rect width="16" height="16" rx="2" fill="white"/>
<path d="M3.22168 2.73438L4.61621 6.21484L6.01074 2.73438H6.74023V7H6.17773V5.33887L6.23047 3.5459L4.83008 7H4.39941L3.00195 3.55469L3.05762 5.33887V7H2.49512V2.73438H3.22168ZM9.60547 7C9.57422 6.9375 9.54883 6.82617 9.5293 6.66602C9.27734 6.92773 8.97656 7.05859 8.62695 7.05859C8.31445 7.05859 8.05762 6.9707 7.85645 6.79492C7.65723 6.61719 7.55762 6.39258 7.55762 6.12109C7.55762 5.79102 7.68262 5.53516 7.93262 5.35352C8.18457 5.16992 8.53809 5.07812 8.99316 5.07812H9.52051V4.8291C9.52051 4.63965 9.46387 4.48926 9.35059 4.37793C9.2373 4.26465 9.07031 4.20801 8.84961 4.20801C8.65625 4.20801 8.49414 4.25684 8.36328 4.35449C8.23242 4.45215 8.16699 4.57031 8.16699 4.70898H7.62207C7.62207 4.55078 7.67773 4.39844 7.78906 4.25195C7.90234 4.10352 8.05469 3.98633 8.24609 3.90039C8.43945 3.81445 8.65137 3.77148 8.88184 3.77148C9.24707 3.77148 9.5332 3.86328 9.74023 4.04688C9.94727 4.22852 10.0547 4.47949 10.0625 4.7998V6.25879C10.0625 6.5498 10.0996 6.78125 10.1738 6.95312V7H9.60547ZM8.70605 6.58691C8.87598 6.58691 9.03711 6.54297 9.18945 6.45508C9.3418 6.36719 9.45215 6.25293 9.52051 6.1123V5.46191H9.0957C8.43164 5.46191 8.09961 5.65625 8.09961 6.04492C8.09961 6.21484 8.15625 6.34766 8.26953 6.44336C8.38281 6.53906 8.52832 6.58691 8.70605 6.58691ZM12.1836 6.61621C12.377 6.61621 12.5459 6.55762 12.6904 6.44043C12.835 6.32324 12.915 6.17676 12.9307 6.00098H13.4434C13.4336 6.18262 13.3711 6.35547 13.2559 6.51953C13.1406 6.68359 12.9863 6.81445 12.793 6.91211C12.6016 7.00977 12.3984 7.05859 12.1836 7.05859C11.752 7.05859 11.4082 6.91504 11.1523 6.62793C10.8984 6.33887 10.7715 5.94434 10.7715 5.44434V5.35352C10.7715 5.04492 10.8281 4.77051 10.9414 4.53027C11.0547 4.29004 11.2168 4.10352 11.4277 3.9707C11.6406 3.83789 11.8916 3.77148 12.1807 3.77148C12.5361 3.77148 12.8311 3.87793 13.0654 4.09082C13.3018 4.30371 13.4277 4.58008 13.4434 4.91992H12.9307C12.915 4.71484 12.8369 4.54688 12.6963 4.41602C12.5576 4.2832 12.3857 4.2168 12.1807 4.2168C11.9053 4.2168 11.6914 4.31641 11.5391 4.51562C11.3887 4.71289 11.3135 4.99902 11.3135 5.37402V5.47656C11.3135 5.8418 11.3887 6.12305 11.5391 6.32031C11.6895 6.51758 11.9043 6.61621 12.1836 6.61621Z" fill="black"/>
<path d="M3.99512 13V8.73438H5.38965C5.85254 8.73438 6.2002 8.83008 6.43262 9.02148C6.66699 9.21289 6.78418 9.49609 6.78418 9.87109C6.78418 10.0703 6.72754 10.2471 6.61426 10.4014C6.50098 10.5537 6.34668 10.6719 6.15137 10.7559C6.38184 10.8203 6.56348 10.9434 6.69629 11.125C6.83105 11.3047 6.89844 11.5195 6.89844 11.7695C6.89844 12.1523 6.77441 12.4531 6.52637 12.6719C6.27832 12.8906 5.92773 13 5.47461 13H3.99512ZM4.55762 11.0049V12.54H5.48633C5.74805 12.54 5.9541 12.4727 6.10449 12.3379C6.25684 12.2012 6.33301 12.0137 6.33301 11.7754C6.33301 11.2617 6.05371 11.0049 5.49512 11.0049H4.55762ZM4.55762 10.5537H5.40723C5.65332 10.5537 5.84961 10.4922 5.99609 10.3691C6.14453 10.2461 6.21875 10.0791 6.21875 9.86816C6.21875 9.63379 6.15039 9.46387 6.01367 9.3584C5.87695 9.25098 5.66895 9.19727 5.38965 9.19727H4.55762V10.5537ZM9.18066 10.3164C9.09863 10.3027 9.00977 10.2959 8.91406 10.2959C8.55859 10.2959 8.31738 10.4473 8.19043 10.75V13H7.64844V9.83008H8.17578L8.18457 10.1963C8.3623 9.91309 8.61426 9.77148 8.94043 9.77148C9.0459 9.77148 9.12598 9.78516 9.18066 9.8125V10.3164ZM9.47949 11.3857C9.47949 11.0752 9.54004 10.7959 9.66113 10.5479C9.78418 10.2998 9.9541 10.1084 10.1709 9.97363C10.3896 9.83887 10.6387 9.77148 10.918 9.77148C11.3496 9.77148 11.6982 9.9209 11.9639 10.2197C12.2314 10.5186 12.3652 10.916 12.3652 11.4121V11.4502C12.3652 11.7588 12.3057 12.0361 12.1865 12.2822C12.0693 12.5264 11.9004 12.7168 11.6797 12.8535C11.4609 12.9902 11.209 13.0586 10.9238 13.0586C10.4941 13.0586 10.1455 12.9092 9.87793 12.6104C9.6123 12.3115 9.47949 11.916 9.47949 11.4238V11.3857ZM10.0244 11.4502C10.0244 11.8018 10.1055 12.084 10.2676 12.2969C10.4316 12.5098 10.6504 12.6162 10.9238 12.6162C11.1992 12.6162 11.418 12.5088 11.5801 12.2939C11.7422 12.0771 11.8232 11.7744 11.8232 11.3857C11.8232 11.0381 11.7402 10.7568 11.5742 10.542C11.4102 10.3252 11.1914 10.2168 10.918 10.2168C10.6504 10.2168 10.4346 10.3232 10.2705 10.5361C10.1064 10.749 10.0244 11.0537 10.0244 11.4502Z" fill="black"/>
</svg>
