<?xml version="1.0" standalone="no"?>
<!DOCTYPE svg PUBLIC "-//W3C//DTD SVG 20010904//EN"
 "http://www.w3.org/TR/2001/REC-SVG-20010904/DTD/svg10.dtd">
<svg version="1.0" xmlns="http://www.w3.org/2000/svg"
 width="450.000000pt" height="450.000000pt" viewBox="0 0 450.000000 450.000000"
 preserveAspectRatio="xMidYMid meet">
<metadata>
Created by potrace 1.11, written by Peter Selinger 2001-2013
</metadata>
<g transform="translate(0.000000,450.000000) scale(0.100000,-0.100000)"
fill="#000000" stroke="none">
<path d="M185 4471 c-39 -18 -77 -47 -107 -80 -85 -95 -78 104 -78 -2145 l0
-2001 29 -60 c18 -39 47 -77 80 -107 95 -85 -104 -78 2145 -78 l2001 0 60 29
c39 18 77 47 107 80 85 95 78 -104 78 2145 l0 2001 -29 60 c-18 39 -47 77 -80
107 -95 85 104 78 -2145 78 l-2001 0 -60 -29z m999 -1421 c104 -258 192 -470
196 -470 3 0 91 212 194 470 l188 470 99 0 99 0 0 -580 0 -580 -77 0 -76 0 6
473 c4 306 2 465 -4 452 -5 -11 -92 -222 -192 -470 l-182 -450 -56 -3 -55 -3
-188 463 c-103 255 -192 468 -198 473 -7 7 -9 -2 -4 -30 3 -22 9 -235 12 -472
l7 -433 -76 0 -77 0 0 580 0 580 98 0 98 0 188 -470z m1531 151 c67 -33 109
-78 131 -140 9 -25 13 -108 14 -281 0 -220 6 -305 26 -392 l6 -28 -75 0 -76 0
-7 45 c-3 25 -8 45 -10 45 -2 0 -24 -15 -48 -34 -121 -92 -299 -88 -414 9
-108 91 -94 293 27 380 72 53 128 67 289 73 l142 5 0 61 c0 73 -22 122 -68
152 -76 52 -212 36 -271 -31 -17 -20 -31 -45 -31 -55 0 -18 -7 -20 -70 -20
l-70 0 0 28 c0 39 54 117 105 152 78 54 145 71 259 65 62 -3 91 -9 141 -34z
m828 24 c129 -33 219 -130 241 -258 l7 -38 -67 3 -67 3 -13 45 c-15 52 -64
106 -113 127 -19 8 -58 14 -87 14 -95 0 -171 -50 -211 -140 -21 -48 -30 -255
-14 -326 30 -136 134 -210 265 -191 78 12 166 88 166 144 0 21 4 22 70 22 l70
0 -6 -27 c-20 -89 -101 -184 -192 -226 -39 -18 -65 -22 -152 -22 -122 1 -171
18 -244 85 -93 85 -126 180 -126 356 0 201 65 332 200 404 71 38 184 48 273
25z m-1841 -1073 c124 -41 200 -121 219 -229 20 -116 -21 -224 -108 -278 -23
-16 -43 -29 -43 -31 0 -2 19 -12 43 -22 55 -25 113 -90 128 -144 16 -61 7
-173 -21 -236 -28 -65 -93 -124 -166 -152 -79 -29 -200 -40 -461 -40 l-233 0
0 581 0 581 288 -4 c264 -4 292 -6 354 -26z m902 -258 c13 -5 16 -26 16 -125
l0 -119 -74 0 c-82 0 -119 -10 -153 -42 -23 -21 -23 -24 -23 -305 l0 -283
-135 0 -135 0 0 430 0 430 125 0 125 0 1 -32 c0 -18 4 -41 8 -51 6 -16 11 -12
40 23 50 63 145 97 205 74z m568 -5 c214 -46 333 -229 315 -484 -14 -196 -122
-339 -287 -381 -100 -25 -229 -16 -311 23 -176 83 -261 285 -218 519 22 117
94 227 184 279 81 48 213 66 317 44z"/>
<path d="M2455 2766 c-22 -7 -50 -18 -63 -25 -61 -33 -82 -138 -39 -202 35
-52 80 -71 157 -66 75 5 119 24 173 75 l37 36 0 98 0 98 -112 -1 c-62 0 -131
-6 -153 -13z"/>
<path d="M1330 1835 l0 -135 110 0 c167 0 210 26 210 128 0 112 -46 142 -215
142 l-105 0 0 -135z"/>
<path d="M1330 1374 l0 -146 128 4 c144 4 180 17 208 77 20 41 14 117 -13 157
-28 43 -69 54 -203 54 l-120 0 0 -146z"/>
<path d="M3010 1682 c-24 -12 -43 -33 -60 -66 -21 -43 -24 -64 -25 -155 0
-172 38 -241 137 -248 68 -5 112 20 138 81 39 88 35 251 -8 335 -21 40 -71 71
-117 71 -16 0 -46 -8 -65 -18z"/>
</g>
</svg>
